#!OML:ASF F:\VICON\USERDATA\INSTALL\rory3\rory3.ASF
:FULLY-SPECIFIED
:DEGREES
310
root 7.51633 18.5748 32.1316 7.45851 -77.9585 0.631678
lowerback 35.2347 0.881074 4.50016
upperback 8.31595 2.43656 6.4616
thorax -8.69959 0.629598 3.60794
lowerneck -15.1581 -0.848948 -1.05365
upperneck 6.83568 0.0541608 -11.234
head 4.55574 -0.81151 -3.34095
rclavicle -1.11319e-014 1.59028e-014
rhumerus -22.7861 -54.2388 -41.9726
rradius 53.3216
rwrist -36.7063
rhand 5.0967 3.68376
rfingers 7.12502
rthumb 30.4622 -23.8188
lclavicle -1.11319e-014 1.59028e-014
lhumerus -43.4107 7.42991 78.0967
lradius 52.5072
lwrist 14.8465
lhand -16.7018 51.9742
lfingers 7.12502
lthumb 9.52311 81.739
rfemur -36.0193 -12.886 27.5688
rtibia 61.6383
rfoot -5.30375 2.47969
rtoes -11.9579
lfemur -34.8928 2.57352 -20.5309
ltibia 41.2961
lfoot 12.6275 -14.1778
ltoes -9.45533
311
root 7.56049 18.5794 32.3666 2.99839 -78.3041 5.06147
lowerback 35.3827 1.00249 3.98162
upperback 8.16874 2.41139 6.02425
thorax -8.91954 0.637532 3.42345
lowerneck -14.7887 -0.827632 -1.08896
upperneck 6.85916 0.0657455 -11.0738
head 4.50165 -0.78372 -3.27836
rclavicle -3.18055e-014 1.59028e-014
rhumerus -23.4091 -52.1213 -40.9616
rradius 55.0208
rwrist -36.5938
rhand 5.48752 3.40948
rfingers 7.12502
rthumb 30.8349 -24.0233
lclavicle -3.18055e-014 1.59028e-014
lhumerus -44.0494 7.489 78.0256
lradius 53.2437
lwrist 15.2877
lhand -16.6183 51.6579
lfingers 7.12502
lthumb 9.60361 81.419
rfemur -35.5212 -12.8433 27.0875
rtibia 60.8298
rfoot -3.6752 5.38486
rtoes -13.6574
lfemur -34.5839 1.98563 -20.6871
ltibia 41.7562
lfoot 6.62325 -12.0743
ltoes -19.2692
312
root 7.58855 18.5766 32.5729 -0.66262 -78.2841 8.59871
lowerback 35.2326 1.12824 3.41275
upperback 8.21336 2.34407 5.77796
thorax -8.83055 0.623862 3.48573
lowerneck -14.704 -0.823338 -1.49306
upperneck 7.02459 0.127517 -10.6544
head 4.53976 -0.739688 -3.07664
rclavicle 0 9.54166e-015
rhumerus -23.772 -50.98 -40.208
rradius 56.8007
rwrist -35.2751
rhand 6.24895 3.86262
rfingers 7.12502
rthumb 31.5605 -23.4305
lclavicle 0 9.54166e-015
lhumerus -44.4589 7.49959 78.0563
lradius 53.963
lwrist 15.6364
lhand -16.1922 51.4064
lfingers 7.12502
lthumb 10.0148 81.1482
rfemur -34.7892 -12.9277 26.7175
rtibia 59.8235
rfoot -2.07729 7.75218
rtoes -8.9237
lfemur -34.2107 1.45572 -20.5981
ltibia 42.2701
lfoot 0.991904 -9.37897
ltoes -27.1157
313
root 7.60818 18.5715 32.7553 -4.02179 -77.7433 11.9168
lowerback 34.7369 0.664738 3.4884
upperback 8.32082 1.67975 4.84055
thorax -8.44658 0.341875 2.69553
lowerneck -14.8224 -0.637465 -1.14646
upperneck 7.27191 0.307825 -10.1119
head 4.63861 -0.609192 -2.95165
rclavicle 5.08889e-014 1.59028e-014
rhumerus -23.837 -50.2035 -41.0882
rradius 58.7266
rwrist -33.1622
rhand 5.41223 4.54974
rfingers 7.12502
rthumb 30.7631 -22.8966
lclavicle 5.08889e-014 1.59028e-014
lhumerus -44.7303 7.10425 77.0729
lradius 54.7049
lwrist 16.4689
lhand -16.5896 51.1299
lfingers 7.12502
lthumb 9.63132 80.8897
rfemur -34.0479 -12.8779 26.3399
rtibia 58.7699
rfoot 0.505425 8.69078
rtoes 1.29031
lfemur -33.9269 1.28225 -20.601
ltibia 42.6916
lfoot -3.02973 -7.90966
ltoes -28.4365
314
root 7.63091 18.5517 32.936 -6.66919 -76.9524 14.5206
lowerback 34.6253 0.887476 2.33896
upperback 8.14605 1.65198 5.33199
thorax -8.67747 0.347132 3.83961
lowerneck -14.81 -0.669882 -1.87157
upperneck 7.79232 0.470931 -10.399
head 4.81062 -0.598346 -2.91828
rclavicle -9.54166e-015 4.77083e-015
rhumerus -23.7906 -48.3482 -39.8433
rradius 60.7846
rwrist -31.9063
rhand 4.26352 4.44754
rfingers 7.12502
rthumb 29.6673 -23.1995
lclavicle -9.54166e-015 4.77083e-015
lhumerus -45.5158 7.08668 78.0839
lradius 55.4234
lwrist 17.1757
lhand -17.5118 50.8962
lfingers 7.12502
lthumb 8.74147 80.6951
rfemur -33.2272 -13.0271 26.0031
rtibia 57.6238
rfoot 2.87257 8.48299
rtoes 4.64444
lfemur -33.6483 1.28272 -20.5554
ltibia 42.996
lfoot -5.6741 -7.68807
ltoes -26.8736
315
root 7.65677 18.5124 33.1018 -8.24149 -76.1074 16.1904
lowerback 34.2801 0.610321 1.97102
upperback 7.99642 1.17156 4.93542
thorax -8.68404 0.150653 3.79147
lowerneck -14.7124 -0.47912 -1.30307
upperneck 8.05425 0.65564 -10.4668
head 4.88454 -0.497592 -3.01841
rclavicle 2.22639e-014 7.95139e-015
rhumerus -24.0172 -47.1481 -40.0845
rradius 63.1753
rwrist -30.3812
rhand 4.17538 4.50746
rfingers 7.12502
rthumb 29.5831 -23.1545
lclavicle 2.22639e-014 7.95139e-015
lhumerus -46.0313 6.99726 77.5334
lradius 56.0138
lwrist 17.383
lhand -16.9049 51.1624
lfingers 7.12502
lthumb 9.3271 80.9361
rfemur -32.6322 -13.8121 25.9201
rtibia 56.6171
rfoot 3.12591 7.3976
rtoes 0.363224
lfemur -34.0305 1.54287 -20.3464
ltibia 43.0441
lfoot -7.16297 -7.37516
ltoes -27.1661
